<svg width="64" height="64" viewBox="0 0 64 64" fill="none" xmlns="http://www.w3.org/2000/svg">
<rect width="64" height="64" rx="8" fill="#CED4DA"/>
<path d="M30.3323 45.6107C30.3323 48.9963 29.5544 51.539 28.0129 53.2246C26.4642 54.9174 24.6417 55.7674 21.5515 55.7674C18.5477 55.7674 16.3003 54.939 14.7948 53.2967C13.2965 51.6543 12.5474 49.162 12.5474 45.834V32.76H17.4024V45.9061C17.4024 47.7717 17.7626 49.162 18.4901 50.0984C19.2176 51.0276 20.2981 51.4886 21.7172 51.4886C23.1506 51.4886 23.7197 51.042 24.4256 50.1416C25.1316 49.2412 25.4845 47.8942 25.4845 46.0933V32.76H30.3251L30.3323 45.6107Z" fill="#0C2D8A"/>
<path d="M51.6399 55.5009H46.1006L42.326 48.0166C42.254 47.8798 42.182 47.6853 42.1099 47.4332C42.0451 47.181 41.9659 46.8713 41.8866 46.5111H41.829C41.7786 46.6768 41.7137 46.9001 41.6345 47.1594C41.5481 47.426 41.4472 47.7213 41.3176 48.0599L37.5286 55.5009H31.9604L38.8108 44.1196L32.5439 32.76H38.2345L41.3752 39.6608C41.4976 39.9201 41.6057 40.2154 41.7209 40.5324C41.829 40.8493 41.937 41.1951 42.0379 41.5625H42.0955C42.1675 41.3175 42.254 41.0366 42.362 40.7125C42.4701 40.3883 42.6069 40.0137 42.7726 39.596L46.2662 32.76H51.4598L45.0129 44.0332L51.6399 55.5009Z" fill="#0C2D8A"/>
<path d="M52 27.1342V28.7549C52 29.2015 51.6254 29.5617 51.1644 29.5617H12.8284C12.3674 29.5617 12 29.2015 12 28.7549V27.1342C12 26.6876 12.3674 26.3274 12.8284 26.3274H51.1572C51.6182 26.3274 52 26.6876 52 27.1342Z" fill="#0C2D8A"/>
<path d="M20.8528 19.1746C20.6223 18.7568 20.3413 18.3606 20.0172 17.9933C19.6931 17.6259 19.3401 17.3738 18.9655 17.2513V17.2225C19.8443 16.9128 20.5286 16.4589 21.0329 15.8323C21.5299 15.1984 21.782 14.4564 21.782 13.592C21.782 12.3603 21.393 11.4454 20.6079 10.8332C19.8227 10.2137 18.6558 9.91113 17.1143 9.91113H12.5474V22.9275H15.3639V18.0509H16.1922C16.5668 18.0797 16.8838 18.231 17.1719 18.4903C17.4528 18.7568 17.7337 19.1602 18.0219 19.686L19.7723 22.9275H22.985L20.8528 19.1746ZM18.2236 15.3136C17.8346 15.6954 17.3232 15.8899 16.6821 15.8899H15.3639V12.0505H16.7397C17.4312 12.0505 17.9498 12.209 18.2956 12.5115C18.6414 12.8213 18.807 13.2679 18.807 13.8658C18.807 14.442 18.6126 14.9246 18.2236 15.3136Z" fill="#0C2D8A"/>
<path d="M28.7909 23.1289C27.7176 23.1289 26.7956 22.9128 26.0248 22.4734C25.254 22.034 24.6634 21.4146 24.2456 20.615C23.8278 19.8082 23.6189 18.8574 23.6189 17.7625C23.6189 16.6892 23.8278 15.7455 24.2456 14.9388C24.6634 14.132 25.2468 13.4981 26.0104 13.0443C26.7667 12.5905 27.66 12.3672 28.6828 12.3672C29.3743 12.3672 30.0154 12.4752 30.6061 12.6985C31.204 12.9218 31.7226 13.246 32.1692 13.6854C32.6158 14.1248 32.9616 14.6722 33.2137 15.335C33.4658 15.9977 33.5883 16.7756 33.5883 17.6616V18.454H24.7714V16.6604H30.851C30.851 16.2426 30.7574 15.8752 30.5773 15.5511C30.3972 15.2269 30.1451 14.9748 29.8282 14.7947C29.5112 14.6146 29.1366 14.521 28.7188 14.521C28.2794 14.521 27.8905 14.6218 27.5519 14.8235C27.2134 15.0252 26.954 15.2917 26.7595 15.6303C26.5651 15.9688 26.4714 16.3434 26.4714 16.754V18.4612C26.4714 18.9798 26.5651 19.4264 26.7595 19.801C26.954 20.1756 27.2206 20.4637 27.5735 20.6726C27.9265 20.8743 28.3443 20.9751 28.8269 20.9751C29.151 20.9751 29.4392 20.9319 29.7057 20.8383C29.9722 20.7446 30.2027 20.615 30.39 20.4277C30.5773 20.2476 30.7214 20.0243 30.8222 19.765L33.4946 19.9451C33.3578 20.5862 33.0841 21.148 32.6663 21.6234C32.2485 22.0989 31.7082 22.4734 31.0527 22.74C30.4044 22.9993 29.6481 23.1289 28.7909 23.1289Z" fill="#0C2D8A"/>
<path d="M39.8192 23.1002C39.0268 23.1002 38.3137 22.8985 37.6726 22.4879C37.0315 22.0773 36.5273 21.4722 36.1527 20.6727C35.7781 19.8731 35.5908 18.8934 35.5908 17.7337C35.5908 16.538 35.7853 15.5439 36.1671 14.7515C36.5489 13.9592 37.0603 13.3613 37.7014 12.9651C38.3425 12.5689 39.0412 12.3744 39.812 12.3744C40.3954 12.3744 40.8853 12.4753 41.2742 12.6698C41.6632 12.8643 41.9802 13.1092 42.2251 13.4045C42.47 13.6999 42.6501 13.9808 42.7797 14.2617H42.8662V9.0249H45.7475V22.9273H42.895V21.2561H42.7725C42.6357 21.5443 42.4484 21.8324 42.1963 22.1133C41.9513 22.3943 41.6344 22.632 41.2382 22.8192C40.8564 23.0065 40.381 23.1002 39.8192 23.1002ZM40.734 20.7951C41.2022 20.7951 41.5984 20.6655 41.9153 20.4133C42.2395 20.1612 42.4844 19.8011 42.6645 19.34C42.8374 18.879 42.9238 18.3388 42.9238 17.7193C42.9238 17.0998 42.8374 16.5596 42.6645 16.1058C42.4916 15.652 42.2467 15.299 41.9153 15.0469C41.5912 14.7948 41.195 14.6723 40.7268 14.6723C40.2514 14.6723 39.8552 14.802 39.5238 15.0613C39.1997 15.3206 38.9548 15.6736 38.7819 16.1346C38.6162 16.5884 38.5298 17.1214 38.5298 17.7193C38.5298 18.3244 38.6162 18.8574 38.7819 19.3256C38.9476 19.7939 39.1997 20.154 39.5238 20.4133C39.848 20.6727 40.2586 20.7951 40.734 20.7951Z" fill="#0C2D8A"/>
<path d="M49.8822 11.1572C49.45 11.1572 49.0826 11.0131 48.7801 10.7322C48.4776 10.4513 48.3191 10.1055 48.3191 9.70214C48.3191 9.29876 48.4704 8.953 48.7801 8.66486C49.0898 8.37673 49.4572 8.23267 49.8822 8.23267C50.3144 8.23267 50.6818 8.37673 50.9843 8.65766C51.2869 8.94579 51.4453 9.28435 51.4453 9.68774C51.4453 10.0911 51.2941 10.4369 50.9843 10.725C50.6818 11.0131 50.3144 11.1572 49.8822 11.1572ZM48.4343 22.9274V12.5042H51.3229V22.9274H48.4343Z" fill="#0C2D8A"/>
</svg>
